M48
;Layer_Color=9474304
;FILE_FORMAT=4:3
METRIC,LZ
;TYPE=PLATED
T1F00S00C0.900
%
T01
X005334Y0078994
X0073406
Y0081534
Y0084074
Y0086614
Y0089154
X0066421Y008001
X0063881
X0059563Y0079502
X0057023
X005334Y0081534
Y0084074
Y0086614
Y0089154
Y0091694
Y0094234
X0057277Y0089535
Y0086995
X0056388Y010287
X0058928
X0063754Y0102997
X0066294
M30
