G04 Layer_Physical_Order=1*
G04 Layer_Color=255*
%FSAX43Y43*%
%MOMM*%
G71*
G01*
G75*
%ADD10R,1.050X0.900*%
%ADD11R,1.300X1.850*%
%ADD12R,0.950X0.200*%
%ADD13R,1.850X1.300*%
%ADD14C,0.152*%
%ADD15C,0.203*%
%ADD16R,1.500X1.500*%
%ADD17C,1.500*%
%ADD18R,1.500X1.500*%
G36*
X0063707Y0085641D02*
Y0085441D01*
X0063723Y0085362D01*
X0063736Y0085341D01*
X0063723Y0085320D01*
X0063707Y0085241D01*
Y0085041D01*
X0063723Y0084962D01*
X0063768Y0084895D01*
X0063835Y0084850D01*
X0063914Y0084834D01*
X0064859D01*
Y0084590D01*
X0064859Y0084590D01*
X0064880Y0084481D01*
X0064942Y0084388D01*
X0065834Y0083496D01*
X0065782Y0083369D01*
X0063883D01*
X0063176Y0084076D01*
Y0085379D01*
X0063453Y0085656D01*
X0063694D01*
X0063707Y0085641D01*
D02*
G37*
G36*
X0074593Y0077807D02*
X0052407D01*
Y0077969D01*
X0052449Y0078004D01*
X0052534Y0078048D01*
X0052590Y0078037D01*
X0054090D01*
X0054169Y0078053D01*
X0054236Y0078098D01*
X0054281Y0078165D01*
X0054297Y0078244D01*
Y0079512D01*
X0056330Y0081545D01*
X0057393D01*
X0057472Y0081561D01*
X0057540Y0081605D01*
X0057584Y0081673D01*
X0057600Y0081752D01*
Y0083602D01*
X0057584Y0083681D01*
X0057540Y0083748D01*
X0057472Y0083793D01*
X0057393Y0083809D01*
X0056093D01*
X0056014Y0083793D01*
X0055946Y0083748D01*
X0055902Y0083681D01*
X0055886Y0083602D01*
Y0081979D01*
X0053858Y0079951D01*
X0052590D01*
X0052534Y0079940D01*
X0052449Y0079984D01*
X0052407Y0080019D01*
Y0080976D01*
X0052534Y0081019D01*
X0052660Y0080854D01*
X0052859Y0080701D01*
X0053091Y0080605D01*
X0053340Y0080573D01*
X0053589Y0080605D01*
X0053821Y0080701D01*
X0054020Y0080854D01*
X0054173Y0081053D01*
X0054269Y0081285D01*
X0054301Y0081534D01*
X0054269Y0081783D01*
X0054173Y0082015D01*
X0054020Y0082214D01*
X0053821Y0082367D01*
X0053589Y0082463D01*
X0053340Y0082495D01*
X0053091Y0082463D01*
X0052859Y0082367D01*
X0052660Y0082214D01*
X0052534Y0082049D01*
X0052407Y0082092D01*
Y0083516D01*
X0052534Y0083559D01*
X0052660Y0083394D01*
X0052859Y0083241D01*
X0053091Y0083145D01*
X0053340Y0083113D01*
X0053589Y0083145D01*
X0053821Y0083241D01*
X0054020Y0083394D01*
X0054173Y0083593D01*
X0054269Y0083825D01*
X0054301Y0084074D01*
X0054269Y0084323D01*
X0054173Y0084555D01*
X0054020Y0084754D01*
X0053821Y0084907D01*
X0053589Y0085003D01*
X0053340Y0085035D01*
X0053091Y0085003D01*
X0052859Y0084907D01*
X0052660Y0084754D01*
X0052534Y0084589D01*
X0052407Y0084632D01*
Y0086056D01*
X0052534Y0086099D01*
X0052660Y0085934D01*
X0052859Y0085781D01*
X0053091Y0085685D01*
X0053340Y0085653D01*
X0053589Y0085685D01*
X0053821Y0085781D01*
X0054020Y0085934D01*
X0054173Y0086133D01*
X0054269Y0086365D01*
X0054301Y0086614D01*
X0054363Y0086684D01*
X0056374D01*
X0056444Y0086514D01*
X0056597Y0086315D01*
X0056796Y0086162D01*
X0057028Y0086066D01*
X0057277Y0086034D01*
X0057526Y0086066D01*
X0057758Y0086162D01*
X0057957Y0086315D01*
X0058110Y0086514D01*
X0058206Y0086746D01*
X0058238Y0086995D01*
X0058206Y0087244D01*
X0058110Y0087476D01*
X0057957Y0087675D01*
X0057758Y0087828D01*
X0057526Y0087924D01*
X0057277Y0087956D01*
X0057028Y0087924D01*
X0056796Y0087828D01*
X0056597Y0087675D01*
X0056444Y0087476D01*
X0056374Y0087306D01*
X0054004D01*
X0053821Y0087447D01*
X0053589Y0087543D01*
X0053340Y0087575D01*
X0053091Y0087543D01*
X0052859Y0087447D01*
X0052660Y0087294D01*
X0052534Y0087129D01*
X0052407Y0087172D01*
Y0088596D01*
X0052534Y0088639D01*
X0052660Y0088474D01*
X0052859Y0088321D01*
X0053091Y0088225D01*
X0053340Y0088193D01*
X0053589Y0088225D01*
X0053821Y0088321D01*
X0054020Y0088474D01*
X0054173Y0088673D01*
X0054269Y0088905D01*
X0054301Y0089154D01*
X0054363Y0089224D01*
X0056320D01*
Y0088785D01*
X0056336Y0088706D01*
X0056381Y0088638D01*
X0056448Y0088594D01*
X0056527Y0088578D01*
X0058027D01*
X0058106Y0088594D01*
X0058174Y0088638D01*
X0058218Y0088706D01*
X0058234Y0088785D01*
Y0089250D01*
X0059335D01*
X0059335Y0089250D01*
X0059444Y0089272D01*
X0059536Y0089334D01*
X0060887Y0090684D01*
X0061056D01*
Y0087757D01*
X0061056Y0087757D01*
X0061078Y0087648D01*
X0061140Y0087556D01*
X0062156Y0086540D01*
X0062156Y0086540D01*
X0062248Y0086478D01*
X0062357Y0086456D01*
X0063694D01*
X0063707Y0086441D01*
Y0086241D01*
X0063694Y0086226D01*
X0063335D01*
X0063335Y0086226D01*
X0063226Y0086204D01*
X0063134Y0086142D01*
X0063134Y0086142D01*
X0062750Y0085759D01*
X0062746Y0085758D01*
X0062645Y0085691D01*
X0062578Y0085590D01*
X0062554Y0085471D01*
Y0083947D01*
X0062578Y0083828D01*
X0062645Y0083727D01*
X0063534Y0082838D01*
X0063635Y0082771D01*
X0063754Y0082747D01*
X0067308D01*
X0068995Y0081060D01*
X0069096Y0080993D01*
X0069215Y0080969D01*
X0072638D01*
X0072726Y0080854D01*
X0072925Y0080701D01*
X0073157Y0080605D01*
X0073406Y0080573D01*
X0073655Y0080605D01*
X0073887Y0080701D01*
X0074086Y0080854D01*
X0074239Y0081053D01*
X0074335Y0081285D01*
X0074367Y0081534D01*
X0074335Y0081783D01*
X0074239Y0082015D01*
X0074086Y0082214D01*
X0073887Y0082367D01*
X0073655Y0082463D01*
X0073406Y0082495D01*
X0073157Y0082463D01*
X0072925Y0082367D01*
X0072726Y0082214D01*
X0072573Y0082015D01*
X0072477Y0081783D01*
X0072452Y0081591D01*
X0069344D01*
X0067751Y0083184D01*
X0067803Y0083311D01*
X0072835D01*
X0072925Y0083241D01*
X0073157Y0083145D01*
X0073406Y0083113D01*
X0073655Y0083145D01*
X0073887Y0083241D01*
X0074086Y0083394D01*
X0074239Y0083593D01*
X0074335Y0083825D01*
X0074367Y0084074D01*
X0074335Y0084323D01*
X0074239Y0084555D01*
X0074086Y0084754D01*
X0073887Y0084907D01*
X0073655Y0085003D01*
X0073406Y0085035D01*
X0073157Y0085003D01*
X0072925Y0084907D01*
X0072726Y0084754D01*
X0072573Y0084555D01*
X0072477Y0084323D01*
X0072445Y0084074D01*
X0072457Y0083976D01*
X0072374Y0083880D01*
X0068291D01*
X0068242Y0083998D01*
X0068420Y0084176D01*
X0069232D01*
X0069311Y0084192D01*
X0069379Y0084237D01*
X0069423Y0084304D01*
X0069439Y0084383D01*
Y0084932D01*
X0069557Y0084981D01*
X0069906Y0084632D01*
X0069906Y0084632D01*
X0069998Y0084570D01*
X0070107Y0084548D01*
X0070134Y0084425D01*
Y0084383D01*
X0070150Y0084304D01*
X0070195Y0084237D01*
X0070262Y0084192D01*
X0070341Y0084176D01*
X0071391D01*
X0071470Y0084192D01*
X0071537Y0084237D01*
X0071582Y0084304D01*
X0071598Y0084383D01*
Y0085283D01*
X0071582Y0085362D01*
X0071537Y0085429D01*
X0071484Y0085465D01*
X0071477Y0085533D01*
X0071484Y0085601D01*
X0071537Y0085636D01*
X0071582Y0085704D01*
X0071598Y0085783D01*
Y0085922D01*
X0072742D01*
X0072925Y0085781D01*
X0073157Y0085685D01*
X0073406Y0085653D01*
X0073655Y0085685D01*
X0073887Y0085781D01*
X0074086Y0085934D01*
X0074239Y0086133D01*
X0074335Y0086365D01*
X0074367Y0086614D01*
X0074335Y0086863D01*
X0074239Y0087095D01*
X0074086Y0087294D01*
X0073887Y0087447D01*
X0073655Y0087543D01*
X0073406Y0087575D01*
X0073157Y0087543D01*
X0072987Y0087472D01*
X0072102Y0088358D01*
X0072001Y0088425D01*
X0071882Y0088449D01*
X0068326D01*
X0068207Y0088425D01*
X0068106Y0088358D01*
X0068039Y0088257D01*
X0068038Y0088253D01*
X0066827Y0087042D01*
X0066794Y0087048D01*
X0065844D01*
X0065765Y0087032D01*
X0065698Y0086988D01*
X0065653Y0086920D01*
X0065637Y0086841D01*
Y0086641D01*
X0065645Y0086600D01*
X0065605Y0086540D01*
X0065590Y0086468D01*
X0065737D01*
X0065765Y0086450D01*
X0065844Y0086434D01*
X0066319D01*
Y0086248D01*
X0065844D01*
X0065765Y0086232D01*
X0065737Y0086214D01*
X0065590D01*
X0065605Y0086142D01*
X0065645Y0086082D01*
X0065637Y0086041D01*
Y0085841D01*
X0065645Y0085800D01*
X0065605Y0085740D01*
X0065590Y0085668D01*
X0065737D01*
X0065765Y0085650D01*
X0065844Y0085634D01*
X0066319D01*
Y0085414D01*
X0065590D01*
X0065605Y0085342D01*
X0065605Y0085341D01*
X0065605Y0085340D01*
X0065590Y0085268D01*
X0066319D01*
Y0085141D01*
X0066446D01*
Y0084782D01*
X0066794D01*
X0066893Y0084802D01*
X0066975Y0084856D01*
X0067234D01*
X0067234Y0084856D01*
X0067343Y0084878D01*
X0067435Y0084940D01*
X0067638Y0085143D01*
X0067700Y0085235D01*
X0067722Y0085344D01*
X0067700Y0085453D01*
X0067638Y0085545D01*
X0067596Y0085588D01*
X0067612Y0085751D01*
X0067613Y0085752D01*
X0067809Y0085948D01*
X0067975D01*
Y0085783D01*
X0067991Y0085704D01*
X0068035Y0085636D01*
X0068089Y0085601D01*
X0068096Y0085533D01*
X0068089Y0085465D01*
X0068035Y0085429D01*
X0067991Y0085362D01*
X0067975Y0085283D01*
Y0084536D01*
X0067319Y0083880D01*
X0066255D01*
X0065428Y0084708D01*
Y0086269D01*
X0065428Y0086269D01*
X0065407Y0086378D01*
X0065345Y0086471D01*
X0065345Y0086471D01*
X0065294Y0086522D01*
X0065201Y0086584D01*
X0065092Y0086605D01*
X0065071Y0086729D01*
Y0086841D01*
X0065055Y0086920D01*
X0065010Y0086988D01*
X0064943Y0087032D01*
X0064864Y0087048D01*
X0063914D01*
X0063835Y0087032D01*
X0063825Y0087026D01*
X0062475D01*
X0061626Y0087875D01*
Y0090684D01*
X0062266D01*
X0062345Y0090700D01*
X0062412Y0090744D01*
X0062457Y0090812D01*
X0062473Y0090891D01*
Y0092191D01*
X0062457Y0092270D01*
X0062412Y0092338D01*
X0062345Y0092382D01*
X0062266Y0092398D01*
X0060416D01*
X0060337Y0092382D01*
X0060270Y0092338D01*
X0060225Y0092270D01*
X0060209Y0092191D01*
Y0090891D01*
X0060222Y0090825D01*
X0059217Y0089820D01*
X0058234D01*
Y0090285D01*
X0058218Y0090364D01*
X0058174Y0090432D01*
X0058106Y0090476D01*
X0058027Y0090492D01*
X0056527D01*
X0056448Y0090476D01*
X0056381Y0090432D01*
X0056336Y0090364D01*
X0056320Y0090285D01*
Y0089846D01*
X0054004D01*
X0053821Y0089987D01*
X0053589Y0090083D01*
X0053340Y0090115D01*
X0053091Y0090083D01*
X0052859Y0089987D01*
X0052660Y0089834D01*
X0052534Y0089669D01*
X0052407Y0089712D01*
Y0091136D01*
X0052534Y0091179D01*
X0052660Y0091014D01*
X0052859Y0090861D01*
X0053091Y0090765D01*
X0053340Y0090733D01*
X0053589Y0090765D01*
X0053821Y0090861D01*
X0054020Y0091014D01*
X0054173Y0091213D01*
X0054269Y0091445D01*
X0054301Y0091694D01*
X0054269Y0091943D01*
X0054173Y0092175D01*
X0054020Y0092374D01*
X0053821Y0092527D01*
X0053589Y0092623D01*
X0053340Y0092655D01*
X0053091Y0092623D01*
X0052859Y0092527D01*
X0052660Y0092374D01*
X0052534Y0092209D01*
X0052407Y0092252D01*
Y0093592D01*
X0052534Y0093636D01*
X0052624Y0093518D01*
X0052834Y0093357D01*
X0053078Y0093256D01*
X0053213Y0093238D01*
Y0094234D01*
Y0095230D01*
X0053078Y0095212D01*
X0052834Y0095111D01*
X0052624Y0094950D01*
X0052534Y0094832D01*
X0052407Y0094876D01*
Y0106089D01*
X0074593D01*
Y0077807D01*
D02*
G37*
G36*
X0072548Y0087033D02*
X0072477Y0086863D01*
X0072445Y0086614D01*
X0072383Y0086544D01*
X0071598D01*
Y0086683D01*
X0071582Y0086762D01*
X0071537Y0086829D01*
X0071470Y0086874D01*
X0071391Y0086890D01*
X0070341D01*
X0070262Y0086874D01*
X0070195Y0086829D01*
X0070150Y0086762D01*
X0070134Y0086683D01*
Y0085783D01*
X0070150Y0085704D01*
X0070195Y0085636D01*
X0070248Y0085601D01*
X0070255Y0085533D01*
X0070248Y0085465D01*
X0070195Y0085429D01*
X0070154Y0085369D01*
X0070147Y0085362D01*
X0070014Y0085329D01*
X0069439Y0085904D01*
Y0086683D01*
X0069423Y0086762D01*
X0069379Y0086829D01*
X0069311Y0086874D01*
X0069232Y0086890D01*
X0068182D01*
X0068103Y0086874D01*
X0068035Y0086829D01*
X0067991Y0086762D01*
X0067975Y0086683D01*
Y0086518D01*
X0067691D01*
X0067582Y0086496D01*
X0067490Y0086434D01*
X0067490Y0086434D01*
X0067294Y0086238D01*
X0067055D01*
X0067053Y0086241D01*
Y0086441D01*
X0067045Y0086482D01*
X0067130Y0086540D01*
X0068418Y0087827D01*
X0071753D01*
X0072548Y0087033D01*
D02*
G37*
%LPC*%
G36*
X0063754Y0081006D02*
X0063619Y0080988D01*
X0063375Y0080887D01*
X0063165Y0080726D01*
X0063004Y0080516D01*
X0062903Y0080272D01*
X0062885Y0080137D01*
X0063754D01*
Y0081006D01*
D02*
G37*
G36*
X0057150Y0080498D02*
Y0079629D01*
X0058019D01*
X0058001Y0079764D01*
X0057900Y0080008D01*
X0057739Y0080218D01*
X0057529Y0080379D01*
X0057285Y0080480D01*
X0057150Y0080498D01*
D02*
G37*
G36*
X0066192Y0085014D02*
X0065590D01*
X0065605Y0084942D01*
X0065661Y0084858D01*
X0065745Y0084802D01*
X0065844Y0084782D01*
X0066192D01*
Y0085014D01*
D02*
G37*
G36*
X0064008Y0081006D02*
Y0080137D01*
X0064877D01*
X0064859Y0080272D01*
X0064758Y0080516D01*
X0064597Y0080726D01*
X0064387Y0080887D01*
X0064143Y0080988D01*
X0064008Y0081006D01*
D02*
G37*
G36*
X0058019Y0079375D02*
X0057150D01*
Y0078506D01*
X0057285Y0078524D01*
X0057529Y0078625D01*
X0057739Y0078786D01*
X0057900Y0078996D01*
X0058001Y0079240D01*
X0058019Y0079375D01*
D02*
G37*
G36*
X0056896D02*
X0056027D01*
X0056045Y0079240D01*
X0056146Y0078996D01*
X0056307Y0078786D01*
X0056517Y0078625D01*
X0056761Y0078524D01*
X0056896Y0078506D01*
Y0079375D01*
D02*
G37*
G36*
X0067171Y0080967D02*
X0065671D01*
X0065592Y0080951D01*
X0065524Y0080907D01*
X0065480Y0080839D01*
X0065464Y0080760D01*
Y0079260D01*
X0065480Y0079181D01*
X0065524Y0079114D01*
X0065592Y0079069D01*
X0065671Y0079053D01*
X0067171D01*
X0067250Y0079069D01*
X0067317Y0079114D01*
X0067362Y0079181D01*
X0067378Y0079260D01*
Y0079699D01*
X0069975D01*
X0071154Y0078520D01*
X0071255Y0078453D01*
X0071374Y0078429D01*
X0072449D01*
Y0078244D01*
X0072465Y0078165D01*
X0072509Y0078098D01*
X0072577Y0078053D01*
X0072656Y0078037D01*
X0074156D01*
X0074235Y0078053D01*
X0074302Y0078098D01*
X0074347Y0078165D01*
X0074363Y0078244D01*
Y0079744D01*
X0074347Y0079823D01*
X0074302Y0079891D01*
X0074235Y0079935D01*
X0074156Y0079951D01*
X0072656D01*
X0072577Y0079935D01*
X0072509Y0079891D01*
X0072465Y0079823D01*
X0072449Y0079744D01*
Y0079051D01*
X0071503D01*
X0070324Y0080230D01*
X0070223Y0080297D01*
X0070104Y0080321D01*
X0067378D01*
Y0080760D01*
X0067362Y0080839D01*
X0067317Y0080907D01*
X0067250Y0080951D01*
X0067171Y0080967D01*
D02*
G37*
G36*
X0060493Y0083809D02*
X0059193D01*
X0059114Y0083793D01*
X0059047Y0083748D01*
X0059002Y0083681D01*
X0058986Y0083602D01*
Y0081752D01*
X0059002Y0081673D01*
X0059047Y0081605D01*
X0059114Y0081561D01*
X0059193Y0081545D01*
X0059252D01*
Y0080459D01*
X0058813D01*
X0058734Y0080443D01*
X0058667Y0080398D01*
X0058622Y0080331D01*
X0058606Y0080252D01*
Y0078752D01*
X0058622Y0078673D01*
X0058667Y0078605D01*
X0058734Y0078561D01*
X0058813Y0078545D01*
X0060313D01*
X0060392Y0078561D01*
X0060459Y0078605D01*
X0060504Y0078673D01*
X0060520Y0078752D01*
Y0080252D01*
X0060504Y0080331D01*
X0060459Y0080398D01*
X0060392Y0080443D01*
X0060313Y0080459D01*
X0059874D01*
Y0081545D01*
X0060493D01*
X0060572Y0081561D01*
X0060639Y0081605D01*
X0060684Y0081673D01*
X0060700Y0081752D01*
Y0083602D01*
X0060684Y0083681D01*
X0060639Y0083748D01*
X0060572Y0083793D01*
X0060493Y0083809D01*
D02*
G37*
G36*
X0056896Y0080498D02*
X0056761Y0080480D01*
X0056517Y0080379D01*
X0056307Y0080218D01*
X0056146Y0080008D01*
X0056045Y0079764D01*
X0056027Y0079629D01*
X0056896D01*
Y0080498D01*
D02*
G37*
G36*
X0064877Y0079883D02*
X0064008D01*
Y0079014D01*
X0064143Y0079032D01*
X0064387Y0079133D01*
X0064597Y0079294D01*
X0064758Y0079504D01*
X0064859Y0079748D01*
X0064877Y0079883D01*
D02*
G37*
G36*
X0063754D02*
X0062885D01*
X0062903Y0079748D01*
X0063004Y0079504D01*
X0063165Y0079294D01*
X0063375Y0079133D01*
X0063619Y0079032D01*
X0063754Y0079014D01*
Y0079883D01*
D02*
G37*
G36*
X0056261Y0103866D02*
X0056126Y0103848D01*
X0055882Y0103747D01*
X0055672Y0103586D01*
X0055511Y0103376D01*
X0055410Y0103132D01*
X0055392Y0102997D01*
X0056261D01*
Y0103866D01*
D02*
G37*
G36*
X0064750Y0102870D02*
X0063881D01*
Y0102001D01*
X0064016Y0102019D01*
X0064260Y0102120D01*
X0064470Y0102281D01*
X0064631Y0102491D01*
X0064732Y0102735D01*
X0064750Y0102870D01*
D02*
G37*
G36*
X0063627D02*
X0062758D01*
X0062776Y0102735D01*
X0062877Y0102491D01*
X0063038Y0102281D01*
X0063248Y0102120D01*
X0063492Y0102019D01*
X0063627Y0102001D01*
Y0102870D01*
D02*
G37*
G36*
X0063881Y0103993D02*
Y0103124D01*
X0064750D01*
X0064732Y0103259D01*
X0064631Y0103503D01*
X0064470Y0103713D01*
X0064260Y0103874D01*
X0064016Y0103975D01*
X0063881Y0103993D01*
D02*
G37*
G36*
X0063627D02*
X0063492Y0103975D01*
X0063248Y0103874D01*
X0063038Y0103713D01*
X0062877Y0103503D01*
X0062776Y0103259D01*
X0062758Y0103124D01*
X0063627D01*
Y0103993D01*
D02*
G37*
G36*
X0056515Y0103866D02*
Y0102997D01*
X0057384D01*
X0057366Y0103132D01*
X0057265Y0103376D01*
X0057104Y0103586D01*
X0056894Y0103747D01*
X0056650Y0103848D01*
X0056515Y0103866D01*
D02*
G37*
G36*
X0057384Y0102743D02*
X0056515D01*
Y0101874D01*
X0056650Y0101892D01*
X0056894Y0101993D01*
X0057104Y0102154D01*
X0057265Y0102364D01*
X0057366Y0102608D01*
X0057384Y0102743D01*
D02*
G37*
G36*
X0059678Y0103827D02*
X0058178D01*
X0058099Y0103811D01*
X0058032Y0103767D01*
X0057987Y0103699D01*
X0057971Y0103620D01*
Y0102120D01*
X0057987Y0102041D01*
X0058032Y0101974D01*
X0058099Y0101929D01*
X0058178Y0101913D01*
X0058617D01*
Y0097054D01*
X0058641Y0096935D01*
X0058708Y0096834D01*
X0060216Y0095327D01*
X0060209Y0095291D01*
Y0093991D01*
X0060225Y0093912D01*
X0060270Y0093844D01*
X0060337Y0093800D01*
X0060416Y0093784D01*
X0062266D01*
X0062345Y0093800D01*
X0062412Y0093844D01*
X0062457Y0093912D01*
X0062473Y0093991D01*
Y0095291D01*
X0062457Y0095370D01*
X0062412Y0095438D01*
X0062345Y0095482D01*
X0062266Y0095498D01*
X0060923D01*
X0059239Y0097183D01*
Y0101913D01*
X0059678D01*
X0059757Y0101929D01*
X0059825Y0101974D01*
X0059869Y0102041D01*
X0059885Y0102120D01*
Y0103620D01*
X0059869Y0103699D01*
X0059825Y0103767D01*
X0059757Y0103811D01*
X0059678Y0103827D01*
D02*
G37*
G36*
X0054336Y0094107D02*
X0053467D01*
Y0093238D01*
X0053602Y0093256D01*
X0053846Y0093357D01*
X0054056Y0093518D01*
X0054217Y0093728D01*
X0054318Y0093972D01*
X0054336Y0094107D01*
D02*
G37*
G36*
X0069378Y0095827D02*
X0067528D01*
X0067449Y0095811D01*
X0067382Y0095767D01*
X0067337Y0095699D01*
X0067321Y0095620D01*
Y0094320D01*
X0067337Y0094241D01*
X0067382Y0094174D01*
X0067449Y0094129D01*
X0067528Y0094113D01*
X0068142D01*
Y0091821D01*
X0068166Y0091702D01*
X0068233Y0091601D01*
X0071154Y0088680D01*
X0071255Y0088613D01*
X0071374Y0088589D01*
X0072638D01*
X0072726Y0088474D01*
X0072925Y0088321D01*
X0073157Y0088225D01*
X0073406Y0088193D01*
X0073655Y0088225D01*
X0073887Y0088321D01*
X0074086Y0088474D01*
X0074239Y0088673D01*
X0074335Y0088905D01*
X0074367Y0089154D01*
X0074335Y0089403D01*
X0074239Y0089635D01*
X0074086Y0089834D01*
X0073887Y0089987D01*
X0073655Y0090083D01*
X0073406Y0090115D01*
X0073157Y0090083D01*
X0072925Y0089987D01*
X0072726Y0089834D01*
X0072573Y0089635D01*
X0072477Y0089403D01*
X0072452Y0089211D01*
X0071503D01*
X0068764Y0091950D01*
Y0094113D01*
X0069378D01*
X0069457Y0094129D01*
X0069524Y0094174D01*
X0069569Y0094241D01*
X0069585Y0094320D01*
Y0095620D01*
X0069569Y0095699D01*
X0069524Y0095767D01*
X0069457Y0095811D01*
X0069378Y0095827D01*
D02*
G37*
G36*
X0056261Y0102743D02*
X0055392D01*
X0055410Y0102608D01*
X0055511Y0102364D01*
X0055672Y0102154D01*
X0055882Y0101993D01*
X0056126Y0101892D01*
X0056261Y0101874D01*
Y0102743D01*
D02*
G37*
G36*
X0067044Y0103954D02*
X0065544D01*
X0065465Y0103938D01*
X0065397Y0103894D01*
X0065353Y0103826D01*
X0065337Y0103747D01*
Y0102247D01*
X0065353Y0102168D01*
X0065397Y0102101D01*
X0065465Y0102056D01*
X0065544Y0102040D01*
X0066812D01*
X0068142Y0100709D01*
Y0098927D01*
X0067528D01*
X0067449Y0098911D01*
X0067382Y0098867D01*
X0067337Y0098799D01*
X0067321Y0098720D01*
Y0097420D01*
X0067337Y0097341D01*
X0067382Y0097273D01*
X0067449Y0097229D01*
X0067528Y0097213D01*
X0069378D01*
X0069457Y0097229D01*
X0069524Y0097273D01*
X0069569Y0097341D01*
X0069585Y0097420D01*
Y0098720D01*
X0069569Y0098799D01*
X0069524Y0098867D01*
X0069457Y0098911D01*
X0069378Y0098927D01*
X0068764D01*
Y0100838D01*
X0068740Y0100957D01*
X0068673Y0101058D01*
X0067251Y0102479D01*
Y0103747D01*
X0067235Y0103826D01*
X0067190Y0103894D01*
X0067123Y0103938D01*
X0067044Y0103954D01*
D02*
G37*
G36*
X0053467Y0095230D02*
Y0094361D01*
X0054336D01*
X0054318Y0094496D01*
X0054217Y0094740D01*
X0054056Y0094950D01*
X0053846Y0095111D01*
X0053602Y0095212D01*
X0053467Y0095230D01*
D02*
G37*
%LPD*%
D10*
X0070866Y0086233D02*
D03*
Y0084833D02*
D03*
X0068707D02*
D03*
Y0086233D02*
D03*
D11*
X0056743Y0082677D02*
D03*
X0059843D02*
D03*
D12*
X0064389Y0086741D02*
D03*
Y0086341D02*
D03*
Y0085941D02*
D03*
Y0085541D02*
D03*
Y0085141D02*
D03*
X0066319Y0086741D02*
D03*
Y0086341D02*
D03*
Y0085941D02*
D03*
Y0085541D02*
D03*
Y0085141D02*
D03*
D13*
X0068453Y0094970D02*
D03*
Y0098070D02*
D03*
X0061341Y0091541D02*
D03*
Y0094641D02*
D03*
D14*
X0066319Y0086741D02*
X0066929D01*
X0068326Y0088138D01*
X0066319Y0085941D02*
X0066332Y0085954D01*
X0067412D01*
X0067691Y0086233D01*
X0068707D01*
X0067437Y0083596D02*
X0072928D01*
X0066137D02*
X0067437D01*
X0068674Y0084833D01*
X0068707D01*
Y0086233D02*
X0070107Y0084833D01*
X0070866D01*
X0067234Y0085141D02*
X0067437Y0085344D01*
X0067183Y0085598D02*
X0067437Y0085344D01*
X0066946Y0085598D02*
X0067183D01*
X0066319Y0085141D02*
X0067234D01*
X0072928Y0083596D02*
X0073406Y0084074D01*
X0065143Y0084590D02*
X0066137Y0083596D01*
X0066910Y0085562D02*
X0066946Y0085598D01*
X0066340Y0085562D02*
X0066910D01*
X0061341Y0087757D02*
Y0091541D01*
Y0087757D02*
X0062357Y0086741D01*
X0057277Y0089535D02*
X0059335D01*
X0061341Y0091541D01*
X0062357Y0086741D02*
X0064389D01*
X0065143Y0084590D02*
Y0086269D01*
X0065092Y0086320D02*
X0065143Y0086269D01*
X0064410Y0086320D02*
X0065092D01*
X0064389Y0086341D02*
X0064410Y0086320D01*
X0066319Y0086341D02*
X0066338Y0086360D01*
X0066319Y0085541D02*
X0066340Y0085562D01*
X0062865Y0085471D02*
X0063335Y0085941D01*
X0064389D01*
X0053467Y0078867D02*
Y0078994D01*
D15*
X0073025Y0086233D02*
X0073406Y0086614D01*
X0070866Y0086233D02*
X0073025D01*
X0068326Y0088138D02*
X0071882D01*
X0073406Y0086614D01*
X0062865Y0083947D02*
Y0085471D01*
Y0083947D02*
X0063754Y0083058D01*
X0067437D01*
X0068453Y0091821D02*
Y0094970D01*
Y0098070D02*
Y0100838D01*
X0066294Y0102997D02*
X0068453Y0100838D01*
X0058928Y0097054D02*
X0061341Y0094641D01*
X0058928Y0097054D02*
Y0102870D01*
X0059563Y0079502D02*
X0059843Y0079782D01*
X0067437Y0083058D02*
X0069215Y0081280D01*
X0070104Y0080010D02*
X0071374Y0078740D01*
X0068453Y0091821D02*
X0071374Y0088900D01*
X0059563Y0079502D02*
Y0082397D01*
X0059843Y0082677D01*
X0066421Y0080010D02*
X0070104D01*
X0056743Y0082397D02*
Y0082677D01*
X0053340Y0078994D02*
X0056743Y0082397D01*
X0053721Y0089535D02*
X0057277D01*
X0053340Y0089154D02*
X0053721Y0089535D01*
Y0086995D02*
X0057277D01*
X0053340Y0086614D02*
X0053721Y0086995D01*
X0071374Y0088900D02*
X0073152D01*
X0073406Y0089154D01*
X0069215Y0081280D02*
X0073152D01*
X0073406Y0081534D01*
X0071374Y0078740D02*
X0073152D01*
X0073406Y0078994D01*
D16*
X0057277Y0089535D02*
D03*
X0053340Y0078994D02*
D03*
X0073406D02*
D03*
D17*
X0057277Y0086995D02*
D03*
X0053340Y0094234D02*
D03*
Y0091694D02*
D03*
Y0089154D02*
D03*
Y0086614D02*
D03*
Y0081534D02*
D03*
Y0084074D02*
D03*
X0057023Y0079502D02*
D03*
X0063881Y0080010D02*
D03*
X0063754Y0102997D02*
D03*
X0056388Y0102870D02*
D03*
X0073406Y0089154D02*
D03*
Y0086614D02*
D03*
Y0084074D02*
D03*
Y0081534D02*
D03*
D18*
X0059563Y0079502D02*
D03*
X0066421Y0080010D02*
D03*
X0066294Y0102997D02*
D03*
X0058928Y0102870D02*
D03*
M02*
