G04 Layer_Color=32768*
%FSAX43Y43*%
%MOMM*%
G71*
G01*
G75*
%ADD21C,0.100*%
%ADD31C,0.050*%
D21*
X0070391Y0085533D02*
X0071341D01*
X0070866Y0085058D02*
Y0086008D01*
X0068232Y0085533D02*
X0069182D01*
X0068707Y0085058D02*
Y0086008D01*
X0057793Y0082677D02*
X0058793D01*
X0058293Y0082177D02*
Y0083177D01*
X0064854Y0085941D02*
X0065854D01*
X0065354Y0085441D02*
Y0086441D01*
X0068453Y0096020D02*
Y0097020D01*
X0067953Y0096520D02*
X0068953D01*
X0061341Y0092591D02*
Y0093591D01*
X0060841Y0093091D02*
X0061841D01*
D31*
X0071916Y0083883D02*
Y0087183D01*
X0069816Y0083883D02*
Y0087183D01*
X0071916D01*
X0069816Y0083883D02*
X0071916D01*
X0067657D02*
Y0087183D01*
X0069757Y0083883D02*
Y0087183D01*
X0067657Y0083883D02*
X0069757D01*
X0067657Y0087183D02*
X0069757D01*
X0055593Y0081227D02*
Y0084127D01*
X0060993Y0081227D02*
Y0084127D01*
X0055593D02*
X0060993D01*
X0055593Y0081227D02*
X0060993D01*
X0063419Y0084441D02*
Y0087441D01*
X0067289Y0084441D02*
Y0087441D01*
X0063419D02*
X0067289D01*
X0063419Y0084441D02*
X0067289D01*
X0067003Y0093820D02*
X0069903D01*
X0067003Y0099220D02*
X0069903D01*
X0067003Y0093820D02*
Y0099220D01*
X0069903Y0093820D02*
Y0099220D01*
X0059891Y0090391D02*
X0062791D01*
X0059891Y0095791D02*
X0062791D01*
X0059891Y0090391D02*
Y0095791D01*
X0062791Y0090391D02*
Y0095791D01*
M02*
